<?xml version="1.0" encoding="UTF-8"?>
<!DOCTYPE svg PUBLIC "-//W3C//DTD SVG 1.1//EN" "http://www.w3.org/Graphics/SVG/1.1/DTD/svg11.dtd">
<svg xmlns="http://www.w3.org/2000/svg" version="1.1" width="512px" height="512px" style="shape-rendering:geometricPrecision; text-rendering:geometricPrecision; image-rendering:optimizeQuality; fill-rule:evenodd; clip-rule:evenodd" xmlns:xlink="http://www.w3.org/1999/xlink">
<g><path style="opacity:0.991" fill="#fe4f28" d="M 281.5,179.5 C 264.491,182.096 247.491,182.096 230.5,179.5C 185.577,163.354 165.077,131.354 169,83.5C 178.937,37.7472 207.437,14.4138 254.5,13.5C 287.165,12.9142 312.665,25.9142 331,52.5C 344.839,82.1057 344.839,111.772 331,141.5C 319.775,161.03 303.275,173.697 281.5,179.5 Z"/></g>
<g><path style="opacity:1" fill="#fdfcf9" d="M 224.5,29.5 C 233.753,28.2108 240.586,31.5442 245,39.5C 245.931,45.3719 244.098,50.2052 239.5,54C 227.092,56.6092 218.592,63.7759 214,75.5C 212.44,81.8648 210.773,88.1982 209,94.5C 201.333,102.5 193.667,102.5 186,94.5C 182.169,82.8166 183.169,71.4833 189,60.5C 197.032,45.6229 208.866,35.2896 224.5,29.5 Z"/></g>
<g><path style="opacity:0.996" fill="#6da2ab" d="M 230.5,179.5 C 247.491,182.096 264.491,182.096 281.5,179.5C 281.5,192.167 281.5,204.833 281.5,217.5C 280.513,222.305 280.179,227.305 280.5,232.5C 280.938,240.943 280.438,249.277 279,257.5C 269.126,264.008 258.293,266.175 246.5,264C 230.981,259.164 225.648,248.664 230.5,232.5C 230.5,226.833 230.5,221.167 230.5,215.5C 230.5,203.5 230.5,191.5 230.5,179.5 Z"/></g>
<g><path style="opacity:0.995" fill="#848484" d="M 230.5,215.5 C 230.5,221.167 230.5,226.833 230.5,232.5C 197.277,243.229 183.11,265.895 188,300.5C 192.871,312.37 201.371,320.537 213.5,325C 243.955,335.222 274.288,334.888 304.5,324C 324.701,314.424 332.201,298.591 327,276.5C 320.757,252.091 305.257,237.424 280.5,232.5C 280.179,227.305 280.513,222.305 281.5,217.5C 340.926,241.7 400.259,266.2 459.5,291C 463.027,293.362 466.027,296.196 468.5,299.5C 468.652,303.883 466.985,307.383 463.5,310C 422.341,331.746 381.341,353.746 340.5,376C 322.532,385.986 303.865,394.319 284.5,401C 278.682,401.964 272.849,402.797 267,403.5C 255.853,401.936 245.02,399.103 234.5,395C 166.824,368.829 101.158,338.329 37.5,303.5C 39.6255,299.211 42.9588,296.044 47.5,294C 108.734,268.313 169.734,242.146 230.5,215.5 Z"/></g>
<g><path style="opacity:1" fill="#282828" d="M 230.5,232.5 C 225.648,248.664 230.981,259.164 246.5,264C 258.293,266.175 269.126,264.008 279,257.5C 280.438,249.277 280.938,240.943 280.5,232.5C 305.257,237.424 320.757,252.091 327,276.5C 332.201,298.591 324.701,314.424 304.5,324C 274.288,334.888 243.955,335.222 213.5,325C 201.371,320.537 192.871,312.37 188,300.5C 183.11,265.895 197.277,243.229 230.5,232.5 Z"/></g>
<g><path style="opacity:1" fill="#db1123" d="M 126.5,280.5 C 141.651,279.621 155.651,283.121 168.5,291C 177.69,304.547 174.69,314.88 159.5,322C 139.332,329.227 119.999,327.56 101.5,317C 95.4626,310.867 93.9626,303.7 97,295.5C 104.886,286.64 114.719,281.64 126.5,280.5 Z"/></g>
<g><path style="opacity:1" fill="#fe4a29" d="M 127.5,284.5 C 137.033,283.733 146.033,285.567 154.5,290C 160.473,297.117 159.139,302.784 150.5,307C 137.51,312.084 124.843,311.417 112.5,305C 107.999,299.012 108.665,293.679 114.5,289C 118.788,287.021 123.122,285.521 127.5,284.5 Z"/></g>
<g><path style="opacity:0.997" fill="#5e6367" d="M 468.5,299.5 C 472.136,305.576 474.302,312.243 475,319.5C 475.667,341.833 475.667,364.167 475,386.5C 473.702,392.469 470.202,396.635 464.5,399C 406.384,431.476 347.884,463.309 289,494.5C 279.661,497.834 270.161,498.334 260.5,496C 232.787,487.096 205.787,476.43 179.5,464C 140.799,446.15 102.466,427.483 64.5,408C 57.3324,403.917 50.3324,399.584 43.5,395C 41.0314,392.559 39.198,389.726 38,386.5C 36.9552,379.875 36.2886,373.208 36,366.5C 35.3333,347.167 35.3333,327.833 36,308.5C 36.1981,306.618 36.6981,304.952 37.5,303.5C 101.158,338.329 166.824,368.829 234.5,395C 245.02,399.103 255.853,401.936 267,403.5C 272.849,402.797 278.682,401.964 284.5,401C 303.865,394.319 322.532,385.986 340.5,376C 381.341,353.746 422.341,331.746 463.5,310C 466.985,307.383 468.652,303.883 468.5,299.5 Z"/></g>
</svg>
